<?xml version="1.0" encoding="UTF-8"?>
<svg id="_レイヤー_1" data-name="レイヤー_1" xmlns="http://www.w3.org/2000/svg" viewBox="0 0 155.15 32">
  <defs>
    <style>
      .cls-1 {
        fill: #f2f2f2;
      }

      .cls-2 {
        fill: #06c56d;
      }
    </style>
  </defs>
  <path class="cls-2" d="M22.91,2.99c.3-1.73,1.88-2.99,3.64-2.99s2.92,1.26,2.62,2.99c-.3,1.76-1.85,3.02-3.65,3.02s-2.92-1.26-2.61-3.02Z"/>
  <path class="cls-1" d="M.03,23.33L3.69,1.91c.16-.94.79-1.48,1.73-1.48h2.77c.94,0,1.38.54,1.22,1.48l-2.99,17.49h8.68c1.04,0,1.41.61.98,1.66l-1.07,2.48c-.36.83-.97,1.26-1.84,1.26H1.26c-.94,0-1.38-.54-1.22-1.48ZM21.02,24.8h2.59c.94,0,1.57-.54,1.73-1.48l2.49-14.54c.16-.94-.29-1.48-1.22-1.48h-2.59c-.94,0-1.57.54-1.73,1.48l-2.49,14.54c-.16.94.29,1.48,1.22,1.48ZM36.81,24.22l-5.29-15.15c-.36-1.04.23-1.76,1.38-1.76h2.81c.83,0,1.34.36,1.58,1.08l2.2,7.16,4.75-7.16c.48-.72,1.08-1.08,1.91-1.08h2.59c1.15,0,1.46.72.74,1.76l-10.55,15.15c-.29.43-.58.65-1.15.65-.61,0-.83-.22-.97-.65ZM50.58,15.69c.86-5,5.32-8.82,10.44-8.82s7.93,3.71,7.29,7.49c-.12.72-.4,1.48-.86,2.27-.42.76-1.05,1.08-1.88,1.08h-2.59c-1.04,0-1.36-.47-.94-1.22.27-.5.45-.94.52-1.37.29-1.69-.88-2.88-2.46-2.88-1.91,0-3.56,1.44-3.89,3.38-.36,2.12.99,3.89,4.12,3.89h5.62c1.04,0,1.41.61.98,1.66l-1.02,2.38c-.36.83-.97,1.26-1.84,1.26h-5.22c-5.54,0-9.18-3.78-8.27-9.11ZM69.68,30.52l2.52-14.72c.91-5.33,5.41-8.93,10.6-8.93s8.6,3.6,7.69,8.93c-1.19,6.98-7.8,9-10.32,9h-.04c-.86,0-1.21-.29-1.31-1.19l-.23-2.45c-.1-1.08.61-1.66,1.47-1.66h.32c1.98,0,4.11-1.51,4.49-3.71.33-1.94-.76-3.56-2.92-3.56-1.94,0-3.83,1.33-4.25,3.82l-2.47,14.47c-.16.94-.79,1.48-1.73,1.48h-2.59c-.94,0-1.38-.54-1.22-1.48ZM91.89,30.52l2.52-14.72c.91-5.33,5.41-8.93,10.6-8.93s8.6,3.6,7.69,8.93c-1.19,6.98-7.8,9-10.32,9h-.04c-.86,0-1.21-.29-1.31-1.19l-.23-2.45c-.1-1.08.61-1.66,1.47-1.66h.32c1.98,0,4.11-1.51,4.49-3.71.33-1.94-.76-3.56-2.92-3.56-1.94,0-3.83,1.33-4.25,3.82l-2.47,14.47c-.16.94-.79,1.48-1.73,1.48h-2.59c-.94,0-1.38-.54-1.22-1.48ZM116.11,16.05c.91-5.33,5.49-9.18,10.93-9.18s8.7,3.85,7.79,9.18c-.91,5.33-5.49,9.18-10.93,9.18s-8.7-3.85-7.79-9.18ZM124.81,19.87c2.3,0,4.05-1.76,4.4-3.82.35-2.05-.79-3.82-3.09-3.82s-4.05,1.76-4.4,3.82c-.35,2.05.79,3.82,3.09,3.82ZM148.38,6.88c4.79,0,7.47,3.06,6.61,8.06l-1.43,8.39c-.16.94-.79,1.48-1.73,1.48h-2.59c-.94,0-1.38-.54-1.22-1.48l1.43-8.39c.31-1.8-.47-2.7-1.99-2.7s-2.64.9-2.95,2.7l-1.43,8.39c-.16.94-.79,1.48-1.73,1.48h-2.59c-.94,0-1.38-.54-1.22-1.48l1.43-8.39c.86-5,4.58-8.06,9.41-8.06Z"/>
</svg>