<?xml version="1.0" encoding="UTF-8"?>
<svg id="_レイヤー_1" data-name="レイヤー_1" xmlns="http://www.w3.org/2000/svg" viewBox="0 0 55.51 46.49">
  <defs>
    <style>
      .cls-1 {
        fill: #f2f2f2;
      }

      .cls-2 {
        fill: #06c56d;
      }
    </style>
  </defs>
  <path class="cls-2" d="M8.9,38.32c-3.13-1.88-5.61-5.04-6.84-8.97-.14-.46-.82-.4-.9.08L.04,35.87c-.3,1.72,1.03,3.3,2.77,3.3h5.82c.46,0,.66-.62.26-.85Z"/>
  <ellipse class="cls-2" cx="30.6" cy="5.15" rx="5.95" ry="4.85" transform="translate(1.53 15.99) rotate(-30)"/>
  <polygon class="cls-2" points="44.7 36.92 44.71 36.91 44.7 36.92 44.7 36.92"/>
  <path class="cls-1" d="M54.97,24.31c-2.51-1.06-2.52-4.28-.31-5.39.75-.38.6-1.36-.38-1.45-2.46-.23-3.48-2.21-2.38-4.45.31-.63-.39-1.43-1.03-1.14-1.71.78-3.42.66-4.06-.21-.92-1.27-.3-2.95.78-3.64s1.52-1.82,1.02-2.69-1.77-1.07-2.84-.46c-.8.46-1.15,1.11-1.22,2.07s-.42,2.75-2.06,3.18c-1.17.3-2.75-.09-3.27-2.67-.14-.69-1.18-.89-1.51-.27-2.54,4.76-7.98,6.38-12.23,4.02-.51-.28-1.14.06-1.24.63l-3.09,16.92c-.07.44-.46.76-.9.75-.13,0-.26,0-.38,0-4.56-.11-7.17-3.71-7.3-7.07-.24-6.59,4.42-9.67,6.62-10.16,2.45-.55,4.09-2.88,3.75-5.39-.33-2.41-2.42-4.2-4.85-4.2H5.49C2.67,2.68.44,4.99.59,7.8c.13,2.42,2.03,4.36,4.43,4.56,0,0,1.36.05,1.36.05-7.21,6.79-3.67,26.18,11.65,26.75.17,0,.35,0,.55,0,.42,0,.74.37.67.78l-.12.69c-.45,2.64.63,5.35,3.96,5.79,3.1.41,5.2-1.8,5.6-4.16l.36-2.14c.09-.54.56-.94,1.11-.94h5.19c1.66,0,3.75-.09,6.71-1.11,1-.35,1.94-.83,2.88-1.31-.08.04-.16.09-.23.13.09-.05.17-.1.26-.15.99-.5,1.99-1,3.07-1.3,1.32-.37,2.69-.58,4.05-.51,1.06.05,1.44-1.01.6-1.48-4.13-2.33-2.79-7.74,1.96-7.65,1,.02,1.15-1.16.32-1.51ZM30.12,31.07l-1.12,6.57c-.11.63-.65,1.09-1.29,1.09l-6.66-.02c-.57,0-1.01-.52-.91-1.08l1.11-6.54c.11-.63.65-1.09,1.29-1.09h6.66c.57,0,1.01.52.91,1.08ZM35.95,29.5h-4.3c-.41,0-.72-.37-.65-.77.17-1.01.48-2.8.67-3.93,1-5.78,7.29-6.22,9.39-3.51,2.53,3.28.8,8.2-5.11,8.2ZM52.59,11.03c-.33-.57-.03-1.36.67-1.76.7-.4,1.53-.27,1.86.3.33.57.03,1.36-.67,1.76-.7.4-1.53.27-1.86-.3Z"/>
</svg>